<svg width="24" height="24" viewBox="0 0 24 24" fill="none" xmlns="http://www.w3.org/2000/svg">
<path d="M16.9247 13.3001C16.8192 13.3717 16.696 13.4139 16.5682 13.4224C16.4404 13.4309 16.3126 13.4052 16.1983 13.3481C15.93 13.1987 15.7854 12.8485 15.7854 12.3713V10.9087C15.7854 10.2066 15.5032 9.70707 15.0311 9.57147C14.2333 9.34141 13.6375 10.3045 13.4076 10.6667L11.9966 12.9172V10.1705C11.9809 9.53714 11.7718 9.15774 11.3764 9.04441C11.1151 8.96887 10.7232 8.99981 10.3416 9.57314L7.18684 14.5635C6.76711 13.7721 6.54947 12.8918 6.55278 11.9988C6.55278 8.99121 8.99157 6.54497 11.9966 6.54497C15.0015 6.54497 17.449 8.99121 17.449 11.9988V12.0143C17.449 12.0143 17.449 12.0245 17.449 12.0297C17.4786 12.6117 17.287 13.0751 16.9264 13.3001H16.9247ZM18.6667 12.0005V11.9713C18.6423 8.30627 15.66 5.33301 11.9966 5.33301C8.33311 5.33301 5.33337 8.32341 5.33337 11.9988C5.33337 15.6742 8.32264 18.6663 11.9966 18.6663C13.6816 18.6663 15.3024 18.0298 16.5258 16.8879C16.6445 16.7776 16.7144 16.6257 16.7202 16.4651C16.7261 16.3044 16.6675 16.1479 16.5571 16.0295C16.5043 15.9719 16.4404 15.9253 16.3692 15.8921C16.298 15.8589 16.2208 15.8399 16.1422 15.8363C16.0635 15.8326 15.9848 15.8443 15.9108 15.8707C15.8367 15.8971 15.7686 15.9377 15.7105 15.9901C15.1838 16.4824 14.5616 16.8647 13.8812 17.1142C13.2009 17.3637 12.4764 17.4751 11.7512 17.4417C11.0261 17.4083 10.3153 17.2309 9.66144 16.9201C9.00757 16.6093 8.42424 16.1715 7.94637 15.633L10.7858 11.1353V13.2108C10.7858 14.2081 11.1778 14.5309 11.507 14.6253C11.8363 14.7197 12.3397 14.6545 12.8676 13.8099L14.4354 11.3087C14.4842 11.228 14.5312 11.1593 14.573 11.0993V12.3713C14.573 13.3035 14.9528 14.0485 15.6182 14.4159C15.9208 14.5769 16.2618 14.6546 16.6053 14.641C16.9489 14.6274 17.2824 14.523 17.571 14.3386C18.3026 13.87 18.7016 13.0219 18.6597 12.0005H18.6667Z" fill="#236D66"/>
<mask id="mask0_606_16200" style="mask-type:luminance" maskUnits="userSpaceOnUse" x="4" y="4" width="16" height="16">
<path d="M20 12C20 7.58172 16.4183 4 12 4C7.58172 4 4 7.58172 4 12C4 16.4183 7.58172 20 12 20C16.4183 20 20 16.4183 20 12Z" fill="white"/>
</mask>
<g mask="url(#mask0_606_16200)">
<path d="M19.903 4H4V20H19.903V4Z" fill="#8A9293"/>
<mask id="mask1_606_16200" style="mask-type:luminance" maskUnits="userSpaceOnUse" x="5" y="5" width="14" height="14">
<path d="M18.7604 5.14258H5.14319V18.8569H18.7604V5.14258Z" fill="white"/>
</mask>
<g mask="url(#mask1_606_16200)">
<path d="M18.7604 11.969C18.777 15.7559 15.7426 18.84 11.9826 18.8569C8.22209 18.8736 5.16042 15.8174 5.14326 12.0305C5.12656 8.24307 8.16109 5.15946 11.921 5.14265C15.6815 5.12583 18.7436 8.1816 18.7604 11.969Z" fill="#080A0B"/>
<path d="M18.2474 11.9705C18.2632 15.4726 15.4571 18.3241 11.9805 18.34C8.50334 18.3559 5.67205 15.5298 5.65632 12.0277C5.64058 8.52573 8.4466 5.67411 11.9237 5.65827C15.4004 5.64289 18.2317 8.46853 18.2474 11.9705Z" fill="#080A0B"/>
<path d="M12.0676 6.06975C12.4644 5.99145 12.8766 6.00203 13.2782 6.06735C13.6798 6.13508 14.0756 6.26 14.4338 6.45695C14.7926 6.65583 15.103 6.92532 15.4122 7.17852C15.7202 7.43452 16.0284 7.69012 16.3208 7.97113C16.616 8.24926 16.8808 8.56493 17.0954 8.91366C17.3138 9.25953 17.5042 9.62653 17.6386 10.0152C17.9014 10.7929 17.9926 11.6312 17.8618 12.4306H17.8213C17.6897 11.6379 17.5108 10.8833 17.2318 10.1646C17.0958 9.80526 16.949 9.44879 16.7662 9.10873C16.5798 8.77146 16.3804 8.43852 16.1538 8.11859C15.9249 7.80152 15.653 7.50999 15.3325 7.28373C15.0129 7.05453 14.6452 6.90566 14.2898 6.76439C13.9335 6.62124 13.5786 6.48337 13.209 6.37624C12.8398 6.26624 12.4616 6.18841 12.0676 6.11011V6.06975Z" fill="#080A0B"/>
<path d="M15.1454 9.73034C14.6884 9.59734 14.2152 9.40801 13.7354 9.21734C13.7078 9.09627 13.6014 8.94541 13.3858 8.76047C13.0724 8.48661 12.4838 8.49387 11.9754 8.61494C11.414 8.48181 10.8593 8.43427 10.327 8.56301C5.97413 9.77121 8.44196 12.7174 6.84363 15.68C7.07116 16.1657 9.52236 19.0009 13.0691 18.24C13.0691 18.24 11.8562 15.3043 14.5935 13.8949C16.8138 12.752 18.4183 10.6301 15.1454 9.73034Z" fill="#8A9293"/>
<path d="M15.6816 11.6612C15.6816 11.8078 15.5642 11.9274 15.4188 11.9278C15.2732 11.9288 15.1545 11.8102 15.1536 11.6632C15.1526 11.5166 15.2704 11.397 15.4164 11.3965C15.5618 11.3956 15.6806 11.5147 15.6816 11.6612Z" fill="#080A0B"/>
<path d="M11.9739 8.61532C12.2911 8.63785 13.4377 9.01498 13.7335 9.21718C13.4883 8.49665 12.6569 8.40105 11.9739 8.61532Z" fill="#8A9293"/>
<path d="M12.2755 10.4374C12.2755 11.1147 11.7303 11.6633 11.0583 11.6633C10.3863 11.6633 9.84106 11.1147 9.84106 10.4374C9.84106 9.76005 10.3863 9.21191 11.0583 9.21191C11.7303 9.21191 12.2755 9.76051 12.2755 10.4374Z" fill="#080A0B"/>
<path d="M11.9155 10.4483C11.9155 10.9243 11.532 11.3105 11.0593 11.3105C10.5866 11.3105 10.2031 10.9248 10.2031 10.4483C10.2031 9.97167 10.5866 9.58594 11.0593 9.58594C11.532 9.58594 11.9155 9.97214 11.9155 10.4483Z" fill="#8A9293"/>
<path d="M16.6682 12.2006C15.6823 12.9005 14.56 13.4313 12.9693 13.4313C12.2247 13.4313 12.0735 12.6344 11.5813 13.0249C11.327 13.2267 10.4313 13.6778 9.7201 13.6437C9.00277 13.6091 7.85757 13.1893 7.53564 11.6611C7.40824 13.1893 7.34337 14.3153 6.77344 15.6056C7.9081 17.4354 10.613 18.8467 13.0685 18.2401C12.8047 16.3843 14.415 14.567 15.3222 13.637C15.6656 13.2849 16.3238 12.7098 16.6682 12.2006Z" fill="#8A9293"/>
<path d="M16.6285 12.2473C16.3222 12.5283 15.9578 12.7368 15.5868 12.9203C15.2118 13.0985 14.8212 13.2436 14.4177 13.3488C14.0156 13.4536 13.5954 13.5323 13.17 13.4939C12.7521 13.4569 12.3104 13.309 12.0286 12.9885L12.0419 12.9732C12.3896 13.1989 12.786 13.2782 13.1824 13.2897C13.5787 13.3003 13.9827 13.2705 14.381 13.1893C14.7783 13.1067 15.1684 12.9832 15.5458 12.8266C15.9221 12.67 16.2941 12.4889 16.6151 12.2314L16.628 12.2468L16.6285 12.2473Z" fill="#58595B"/>
</g>
</g>
</svg>
